<?xml version="1.0" encoding="utf-8"?>
<!-- Generator: Adobe Illustrator 23.0.3, SVG Export Plug-In . SVG Version: 6.00 Build 0)  -->
<svg version="1.1" id="图层_1" xmlns="http://www.w3.org/2000/svg" xmlns:xlink="http://www.w3.org/1999/xlink" x="0px" y="0px"
	 viewBox="0 0 20 20" style="enable-background:new 0 0 20 20;" xml:space="preserve">
<style type="text/css">
	.st0{fill:none;stroke:#FFFFFF;stroke-width:2;stroke-linecap:round;stroke-linejoin:round;stroke-miterlimit:10;}
</style>
<g>
	<g>
		<path class="st0" d="M18,14.09H2c-0.55,0-1-0.45-1-1V2c0-0.55,0.45-1,1-1h16c0.55,0,1,0.45,1,1v11.09
			C19,13.64,18.55,14.09,18,14.09z"/>
		<g>
			<line class="st0" x1="5.24" y1="7.55" x2="14.24" y2="7.55"/>
			<polyline class="st0" points="7.56,9.66 5.24,7.55 7.56,5.43 			"/>
			<polyline class="st0" points="12.44,5.43 14.76,7.55 12.44,9.66 			"/>
		</g>
	</g>
	<polygon class="st0" points="13.6,19 6.4,19 8.2,14.09 11.8,14.09 	"/>
	<line class="st0" x1="1" y1="19" x2="19" y2="19"/>
</g>
</svg>
