<?xml version="1.0" encoding="utf-8"?>
<!-- Generator: Adobe Illustrator 23.0.3, SVG Export Plug-In . SVG Version: 6.00 Build 0)  -->
<svg version="1.1" id="图层_1" xmlns="http://www.w3.org/2000/svg" xmlns:xlink="http://www.w3.org/1999/xlink" x="0px" y="0px"
	 viewBox="0 0 20 20" style="enable-background:new 0 0 20 20;" xml:space="preserve">
<style type="text/css">
	.st0{fill:none;stroke:#FFFFFF;stroke-width:2;stroke-linecap:round;stroke-linejoin:round;stroke-miterlimit:10;}
</style>
<g>
	<path class="st0" d="M19,18.25H1c0-0.75,0.09-1.48,0.27-2.18c0.84-3.4,3.63-6.04,7.11-6.67C8.91,9.3,9.45,9.25,10,9.25
		c0.65,0,1.28,0.07,1.88,0.2c3.37,0.71,6.04,3.31,6.86,6.63C18.91,16.77,19,17.5,19,18.25z"/>
	<path class="st0" d="M13.75,5.5c0,1.39-0.75,2.6-1.88,3.25c-0.55,0.32-1.19,0.5-1.88,0.5c-0.58,0-1.13-0.13-1.61-0.37
		C7.12,8.28,6.25,6.99,6.25,5.5s0.87-2.78,2.14-3.38C8.88,1.88,9.42,1.75,10,1.75c0.68,0,1.33,0.18,1.88,0.5
		C13,2.9,13.75,4.11,13.75,5.5z"/>
	<path class="st0" d="M10,14.47"/>
	<path class="st0" d="M10,9.4"/>
	<line class="st0" x1="7.66" y1="12.53" x2="12.34" y2="12.53"/>
	<line class="st0" x1="7.3" y1="15.91" x2="12.7" y2="15.91"/>
</g>
</svg>
