<?xml version="1.0" encoding="utf-8"?>
<!-- Generator: Adobe Illustrator 23.0.3, SVG Export Plug-In . SVG Version: 6.00 Build 0)  -->
<svg version="1.1" id="图层_1" xmlns="http://www.w3.org/2000/svg" xmlns:xlink="http://www.w3.org/1999/xlink" x="0px" y="0px"
	 viewBox="0 0 20 20" style="enable-background:new 0 0 20 20;" xml:space="preserve">
<style type="text/css">
	.st0{fill:#5BBDDA;}
	.st1{fill:#FFFFFF;}
</style>
<g>
	<g>
		<path class="st0" d="M9.24,5.83L9.24,5.83c-0.31,0.31-0.82,0.31-1.13,0L3.58,1.35c-0.31-0.31-0.31-0.81,0-1.12l0,0
			c0.31-0.31,0.82-0.31,1.13,0l4.53,4.48C9.55,5.02,9.55,5.52,9.24,5.83z"/>
		<path class="st0" d="M16.42,0.23L16.42,0.23c0.31,0.31,0.31,0.81,0,1.12l-4.53,4.48c-0.31,0.31-0.82,0.31-1.13,0l0,0
			c-0.31-0.31-0.31-0.81,0-1.12l4.53-4.48C15.6-0.08,16.1-0.08,16.42,0.23z"/>
	</g>
	<g>
		<path class="st0" d="M17.99,20H2.01C0.91,20,0,19.09,0,17.99l0-11.9c0-1.11,0.91-2.01,2.01-2.01h15.97c1.11,0,2.01,0.91,2.01,2.01
			v11.9C20,19.09,19.09,20,17.99,20z"/>
		<path class="st1" d="M13.12,12.89l-5.25,3.04c-0.66,0.38-1.49-0.09-1.49-0.86l0-6.08c0-0.76,0.83-1.24,1.49-0.86l5.25,3.04
			C13.78,11.56,13.78,12.51,13.12,12.89z"/>
	</g>
</g>
</svg>
