<?xml version="1.0" encoding="utf-8"?>
<!-- Generator: Adobe Illustrator 23.0.3, SVG Export Plug-In . SVG Version: 6.00 Build 0)  -->
<svg version="1.1" id="图层_1" xmlns="http://www.w3.org/2000/svg" xmlns:xlink="http://www.w3.org/1999/xlink" x="0px" y="0px"
	 viewBox="0 0 20 20" style="enable-background:new 0 0 20 20;" xml:space="preserve">
<style type="text/css">
	.st0{fill:none;stroke:#FFFFFF;stroke-width:2;stroke-linecap:round;stroke-linejoin:round;stroke-miterlimit:10;}
</style>
<g>
	<path class="st0" d="M16.9,11.23l1.7,0.95c0.37,0.21,0.5,0.67,0.29,1.02l-1.56,2.6c-0.22,0.36-0.69,0.48-1.07,0.28l-1.71-0.95
		c-0.64,0.53-1.4,0.95-2.22,1.23v1.89c0,0.41-0.35,0.75-0.78,0.75H8.43C8,19,7.65,18.66,7.65,18.25v-1.89
		c-0.82-0.28-1.58-0.7-2.22-1.23l-1.7,0.95c-0.37,0.21-0.85,0.08-1.07-0.27L1.1,13.2c-0.22-0.36-0.09-0.82,0.29-1.02l1.7-0.94
		c-0.08-0.4-0.12-0.82-0.12-1.24s0.04-0.84,0.12-1.24l-1.7-0.94C1.02,7.62,0.89,7.16,1.1,6.8l1.56-2.6
		c0.22-0.36,0.69-0.48,1.07-0.27l1.7,0.95c0.64-0.53,1.4-0.95,2.22-1.23V1.75C7.65,1.34,8,1,8.43,1h3.12c0.43,0,0.78,0.34,0.78,0.75
		v1.89c0.82,0.28,1.58,0.7,2.22,1.23l1.71-0.95c0.37-0.21,0.85-0.08,1.07,0.28l1.56,2.6c0.22,0.36,0.09,0.82-0.29,1.02l-1.7,0.95
		c0.08,0.4,0.12,0.81,0.12,1.23S16.98,10.83,16.9,11.23z"/>
	<circle class="st0" cx="10" cy="10" r="2.25"/>
</g>
</svg>
